<svg width="171" height="137" viewBox="0 0 171 137" fill="none" xmlns="http://www.w3.org/2000/svg">
<g clip-path="url(#clip0_2251_8)">
<path d="M85.5003 0L171 51.4086V85.5781L85.5003 137L0 85.5781V51.4089L85.5003 0Z" fill="#A5B4FC"/>
<path fill-rule="evenodd" clip-rule="evenodd" d="M0 51.4086L85.5 0L171 51.4086V85.5781L85.5 137L0 85.5781V51.4086ZM85.5 115.186L152.863 74.6725V62.3182L152.859 62.3162L85.5 102.817L18.1406 62.3162L18.1373 62.3182V74.6725L85.5 115.186ZM85.5 83.9283L137.148 52.8738L124.566 45.3121L85.5 68.8017L46.4337 45.3121L33.8519 52.8738L85.5 83.9283ZM85.5 49.9125L108.855 35.8697L85.5 21.8332L62.1448 35.8697L85.5 49.9125Z" fill="#651FFF"/>
<path d="M85.5003 0L0 51.4089V85.5781L85.5 137L85.5003 0Z" fill="#A5B4FC" fill-opacity="0.3"/>
</g>
<defs>
<clipPath id="clip0_2251_8">
<rect width="171" height="137" fill="white"/>
</clipPath>
</defs>
</svg>
